<svg width="286" height="276" viewBox="0 0 286 276" fill="none" xmlns="http://www.w3.org/2000/svg">
<path d="M143.825 23V5.54545H155.006V8.19602H146.986V12.9347H154.239V15.5852H146.986V23H143.825Z" fill="white"/>
<path d="M166.83 25.4173L169.463 12.5939L172.4 13.16L171.961 15.2972L172.095 15.323C172.481 14.6279 173 14.1349 173.652 13.8438C174.31 13.5482 175.007 13.4714 175.743 13.6133C175.911 13.6456 176.096 13.69 176.299 13.7464C176.509 13.7984 176.68 13.8518 176.814 13.9065L176.243 16.6866C176.124 16.6173 175.929 16.5391 175.657 16.4519C175.391 16.3603 175.13 16.2898 174.873 16.2403C174.321 16.1339 173.8 16.1578 173.31 16.3122C172.827 16.4621 172.417 16.7216 172.08 17.0906C171.743 17.4597 171.519 17.9169 171.407 18.4624L169.859 26.0011L166.83 25.4173Z" fill="white"/>
<path d="M192.461 33.7629C191.691 33.4539 191.056 33.0398 190.555 32.5206C190.062 31.9982 189.751 31.3961 189.622 30.7141C189.499 30.0342 189.606 29.2998 189.943 28.5109C190.234 27.8318 190.6 27.3209 191.043 26.9784C191.486 26.6359 191.984 26.4193 192.535 26.3285C193.087 26.2377 193.666 26.2344 194.272 26.3186C194.886 26.3997 195.502 26.5275 196.119 26.7018C196.863 26.9143 197.468 27.0807 197.935 27.201C198.405 27.316 198.767 27.3511 199.021 27.3061C199.282 27.258 199.471 27.0981 199.587 26.8265L199.608 26.7795C199.86 26.1891 199.879 25.6611 199.664 25.1954C199.449 24.7297 199.009 24.3636 198.345 24.0969C197.644 23.8155 197.023 23.7438 196.482 23.8817C195.946 24.0218 195.519 24.2696 195.2 24.6252L192.688 23.1762C193.211 22.5295 193.821 22.0579 194.516 21.7615C195.213 21.4598 195.965 21.327 196.771 21.3629C197.58 21.3935 198.408 21.5792 199.257 21.9199C199.843 22.1548 200.396 22.4565 200.918 22.8251C201.44 23.1937 201.874 23.631 202.22 24.137C202.568 24.6378 202.773 25.2129 202.835 25.8621C202.903 26.5135 202.766 27.2389 202.424 28.0382L198.98 36.0941L196.227 34.9895L196.934 33.336L196.839 33.2979C196.522 33.5625 196.143 33.7775 195.701 33.9431C195.267 34.1056 194.775 34.1805 194.225 34.1677C193.682 34.1517 193.094 34.0168 192.461 33.7629ZM194.096 31.9767C194.671 32.2074 195.217 32.295 195.735 32.2397C196.255 32.1791 196.709 32.0062 197.096 31.721C197.489 31.438 197.78 31.0744 197.97 30.6304L198.577 29.2119C198.456 29.2491 198.274 29.2557 198.031 29.2316C197.793 29.2097 197.532 29.1693 197.249 29.1105C196.965 29.0517 196.686 28.9888 196.412 28.9217C196.138 28.8545 195.9 28.796 195.699 28.7459C195.248 28.632 194.825 28.5726 194.432 28.5678C194.039 28.5629 193.694 28.6389 193.399 28.7957C193.105 28.9473 192.88 29.206 192.724 29.5717C192.501 30.0941 192.524 30.5658 192.795 30.9867C193.066 31.4076 193.5 31.7376 194.096 31.9767Z" fill="white"/>
<path d="M209.57 42.869L217.002 32.0926L219.478 33.695L218.215 35.5262L218.344 35.6095C218.999 35.1403 219.71 34.904 220.478 34.9006C221.249 34.8926 222.002 35.1263 222.737 35.6018C223.481 36.0834 223.986 36.6672 224.251 37.353C224.524 38.0373 224.556 38.7514 224.346 39.4953L224.461 39.5694C225.117 39.1281 225.856 38.9166 226.679 38.9347C227.509 38.9513 228.322 39.2173 229.119 39.733C230.13 40.3875 230.739 41.2351 230.946 42.2755C231.153 43.316 230.842 44.4373 230.013 45.6394L225.024 52.8728L222.427 51.1916L227.145 44.3511C227.606 43.6822 227.762 43.0761 227.612 42.5328C227.466 41.9847 227.13 41.5409 226.606 41.2013C225.981 40.7968 225.36 40.6721 224.742 40.8271C224.133 40.9806 223.618 41.3613 223.199 41.9694L218.563 48.6906L216.023 47.0465L220.814 40.1007C221.198 39.5441 221.332 38.9887 221.218 38.4343C221.108 37.883 220.779 37.4298 220.231 37.0747C219.859 36.8339 219.456 36.7082 219.021 36.6977C218.59 36.6825 218.168 36.7846 217.755 37.004C217.344 37.2188 216.986 37.5483 216.679 37.9927L212.16 44.5455L209.57 42.869Z" fill="white"/>
<path d="M231.524 61.5034C230.581 60.5902 229.963 59.6117 229.669 58.568C229.383 57.5242 229.418 56.4746 229.773 55.419C230.132 54.3595 230.803 53.3533 231.787 52.4005C232.754 51.4635 233.786 50.8191 234.884 50.4672C235.99 50.1154 237.08 50.064 238.153 50.3131C239.23 50.5582 240.218 51.1156 241.115 51.9854C241.695 52.5468 242.148 53.1675 242.474 53.8475C242.809 54.5275 242.98 55.247 242.989 56.0061C243.001 56.7691 242.821 57.5519 242.45 58.3545C242.083 59.1531 241.487 59.9517 240.662 60.7503L239.983 61.4086L232.276 53.9424L233.77 52.4954L239.353 57.9038C239.773 57.4887 240.059 57.034 240.21 56.5398C240.365 56.0417 240.377 55.5435 240.246 55.0454C240.12 54.5512 239.844 54.0985 239.42 53.6874C238.967 53.2485 238.459 52.9698 237.896 52.8512C237.337 52.7286 236.784 52.7464 236.237 52.9046C235.698 53.0627 235.217 53.3434 234.792 53.7467L233.488 55.0098C232.942 55.5396 232.572 56.0911 232.381 56.6644C232.193 57.2337 232.174 57.7931 232.325 58.3426C232.48 58.8882 232.799 59.3942 233.28 59.8608C233.603 60.1731 233.939 60.4123 234.29 60.5783C234.645 60.7404 235.009 60.8274 235.38 60.8392C235.751 60.8511 236.119 60.776 236.482 60.6139L238.318 62.8437C237.641 63.2469 236.914 63.4683 236.139 63.5079C235.372 63.5474 234.592 63.4011 233.801 63.069C233.013 62.733 232.254 62.2111 231.524 61.5034Z" fill="white"/>
<path d="M243.205 76.5272C242.912 76.1016 242.813 75.6379 242.908 75.1363C243.004 74.6347 243.273 74.2442 243.715 73.9648C244.141 73.6822 244.611 73.5942 245.126 73.7006C245.641 73.807 246.046 74.073 246.339 74.4986C246.623 74.9102 246.717 75.3669 246.622 75.8685C246.529 76.3748 246.27 76.7692 245.844 77.0518C245.55 77.2355 245.233 77.332 244.895 77.3414C244.56 77.3554 244.24 77.2918 243.935 77.1506C243.639 77.011 243.396 76.8032 243.205 76.5272Z" fill="white"/>
<path d="M276.744 112.321L277.462 115.819L270.739 121.463L270.773 121.63L279.214 124.351L279.932 127.849L267.91 123.701L261.516 124.933L260.882 121.844L267.276 120.612L276.744 112.321Z" fill="white"/>
<path d="M261.631 144.966C261.631 143.687 261.912 142.579 262.475 141.642C263.037 140.704 263.824 139.977 264.835 139.46C265.847 138.949 267.029 138.693 268.381 138.693C269.733 138.693 270.918 138.949 271.935 139.46C272.952 139.977 273.742 140.704 274.304 141.642C274.867 142.579 275.148 143.687 275.148 144.966C275.148 146.244 274.867 147.352 274.304 148.29C273.742 149.227 272.952 149.952 271.935 150.463C270.918 150.98 269.733 151.238 268.381 151.238C267.029 151.238 265.847 150.98 264.835 150.463C263.824 149.952 263.037 149.227 262.475 148.29C261.912 147.352 261.631 146.244 261.631 144.966ZM264.102 144.983C264.102 145.676 264.293 146.256 264.673 146.721C265.06 147.187 265.577 147.534 266.225 147.761C266.872 147.994 267.594 148.111 268.389 148.111C269.19 148.111 269.915 147.994 270.563 147.761C271.216 147.534 271.736 147.187 272.122 146.721C272.509 146.256 272.702 145.676 272.702 144.983C272.702 144.273 272.509 143.682 272.122 143.21C271.736 142.744 271.216 142.395 270.563 142.162C269.915 141.934 269.19 141.821 268.389 141.821C267.594 141.821 266.872 141.934 266.225 142.162C265.577 142.395 265.06 142.744 264.673 143.21C264.293 143.682 264.102 144.273 264.102 144.983Z" fill="white"/>
<path d="M263.041 171.015L270.489 172.45L269.868 175.472L257.014 172.995L257.616 170.065L259.9 170.505L259.928 170.372C259.267 169.943 258.776 169.354 258.455 168.604C258.132 167.859 258.07 167.005 258.268 166.042C258.44 165.202 258.78 164.495 259.286 163.921C259.797 163.354 260.449 162.959 261.243 162.736C262.043 162.514 262.956 162.502 263.982 162.7L272.167 164.277L271.546 167.299L263.83 165.812C263.016 165.655 262.323 165.753 261.752 166.106C261.181 166.459 260.821 166.997 260.672 167.72C260.581 168.166 260.601 168.618 260.733 169.077C260.865 169.537 261.118 169.941 261.493 170.291C261.872 170.648 262.388 170.889 263.041 171.015Z" fill="white"/>
<path d="M252.205 183.398L264.354 188.273L263.178 191.024L261.153 190.211L261.1 190.336C261.707 190.837 262.087 191.43 262.239 192.116C262.394 192.808 262.324 193.499 262.029 194.189C261.962 194.346 261.879 194.517 261.781 194.704C261.685 194.899 261.596 195.056 261.514 195.176L258.88 194.119C258.974 194.016 259.092 193.84 259.236 193.591C259.382 193.35 259.507 193.109 259.609 192.869C259.83 192.352 259.916 191.841 259.866 191.338C259.818 190.841 259.647 190.396 259.352 190.002C259.057 189.609 258.651 189.308 258.135 189.101L250.992 186.234L252.205 183.398Z" fill="white"/>
<path d="M239.625 204.664C239.919 204.238 240.323 203.972 240.838 203.866C241.353 203.759 241.828 203.85 242.264 204.139C242.696 204.412 242.96 204.8 243.056 205.301C243.152 205.803 243.053 206.267 242.759 206.692C242.475 207.104 242.076 207.363 241.561 207.469C241.043 207.58 240.567 207.499 240.135 207.226C239.847 207.033 239.634 206.787 239.495 206.487C239.354 206.193 239.292 205.882 239.31 205.556C239.33 205.237 239.435 204.94 239.625 204.664Z" fill="white"/>
<path d="M207.36 234.562L217.27 248.93L207.883 255.007L206.378 252.825L213.111 248.467L210.42 244.566L204.332 248.507L202.827 246.325L208.915 242.384L204.706 236.28L207.36 234.562Z" fill="white"/>
<path d="M183.155 245.972C183.925 245.663 184.677 245.52 185.41 245.544C186.14 245.576 186.799 245.788 187.388 246.183C187.971 246.579 188.432 247.172 188.769 247.96C189.059 248.64 189.173 249.252 189.11 249.798C189.046 250.343 188.853 250.837 188.529 251.279C188.205 251.721 187.798 252.12 187.308 252.476C186.815 252.839 186.286 253.171 185.722 253.471C185.042 253.829 184.492 254.126 184.074 254.362C183.658 254.602 183.376 254.825 183.229 255.031C183.08 255.244 183.063 255.487 183.179 255.758L183.199 255.805C183.451 256.396 183.824 256.782 184.315 256.964C184.807 257.146 185.385 257.104 186.05 256.837C186.751 256.556 187.242 256.181 187.524 255.713C187.801 255.247 187.922 254.779 187.888 254.309L190.722 253.613C190.824 254.429 190.737 255.18 190.462 255.865C190.189 256.556 189.754 257.165 189.158 257.692C188.564 258.224 187.842 258.661 186.994 259.002C186.408 259.236 185.796 259.402 185.158 259.499C184.52 259.596 183.894 259.584 183.28 259.463C182.669 259.348 182.104 259.082 181.586 258.665C181.063 258.251 180.631 257.644 180.289 256.845L176.845 248.789L179.597 247.684L180.304 249.338L180.399 249.299C180.43 248.895 180.541 248.483 180.732 248.064C180.921 247.652 181.214 247.262 181.613 246.893C182.008 246.533 182.523 246.225 183.155 245.972ZM183.303 248.354C182.728 248.585 182.278 248.897 181.952 249.291C181.629 249.69 181.434 250.124 181.368 250.591C181.297 251.06 181.356 251.517 181.546 251.961L182.152 253.379C182.211 253.27 182.335 253.141 182.524 252.991C182.708 252.844 182.922 252.694 183.166 252.541C183.409 252.388 183.652 252.242 183.895 252.101C184.138 251.961 184.349 251.84 184.527 251.738C184.93 251.509 185.272 251.261 185.553 250.995C185.835 250.729 186.023 250.439 186.118 250.126C186.215 249.818 186.185 249.481 186.028 249.115C185.805 248.593 185.444 248.276 184.945 248.164C184.446 248.052 183.899 248.115 183.303 248.354Z" fill="white"/>
<path d="M158.725 251.884C160.009 251.637 161.168 251.706 162.204 252.09C163.235 252.476 164.1 253.117 164.8 254.012C165.495 254.913 165.976 256.012 166.242 257.309C166.51 258.612 166.495 259.809 166.197 260.902C165.901 262.001 165.352 262.917 164.551 263.65C163.746 264.389 162.716 264.88 161.461 265.122C160.417 265.323 159.455 265.309 158.572 265.08C157.686 264.857 156.931 264.444 156.308 263.841C155.687 263.243 155.248 262.489 154.991 261.578L157.887 261.02C158.131 261.615 158.515 262.076 159.041 262.403C159.562 262.737 160.188 262.833 160.918 262.692C161.538 262.573 162.047 262.301 162.447 261.877C162.849 261.458 163.117 260.914 163.252 260.246C163.382 259.579 163.359 258.814 163.181 257.951C163.002 257.077 162.719 256.351 162.334 255.771C161.949 255.197 161.49 254.785 160.958 254.535C160.42 254.291 159.836 254.23 159.206 254.352C158.76 254.438 158.378 254.598 158.061 254.833C157.739 255.074 157.491 255.379 157.318 255.748C157.144 256.117 157.06 256.542 157.066 257.021L154.17 257.579C154.056 256.658 154.159 255.802 154.478 255.011C154.798 254.226 155.317 253.559 156.034 253.01C156.751 252.467 157.649 252.092 158.725 251.884Z" fill="white"/>
<path d="M135.403 252.744C136.716 252.744 137.849 253.017 138.804 253.562C139.753 254.114 140.483 254.892 140.994 255.898C141.505 256.909 141.761 258.099 141.761 259.469C141.761 260.815 141.505 261.997 140.994 263.014C140.477 264.037 139.755 264.832 138.829 265.401C137.903 265.974 136.815 266.261 135.565 266.261C134.758 266.261 133.997 266.131 133.281 265.869C132.559 265.614 131.923 265.216 131.372 264.676C130.815 264.136 130.378 263.449 130.059 262.614C129.741 261.784 129.582 260.795 129.582 259.648V258.702H140.312V260.781H132.539C132.545 261.372 132.673 261.898 132.923 262.358C133.173 262.824 133.522 263.19 133.971 263.457C134.414 263.724 134.932 263.858 135.522 263.858C136.153 263.858 136.707 263.705 137.184 263.398C137.662 263.097 138.034 262.699 138.301 262.205C138.562 261.716 138.696 261.179 138.701 260.594V258.778C138.701 258.017 138.562 257.364 138.284 256.818C138.005 256.278 137.616 255.864 137.116 255.574C136.616 255.29 136.031 255.148 135.361 255.148C134.912 255.148 134.505 255.21 134.142 255.335C133.778 255.466 133.463 255.656 133.196 255.906C132.929 256.156 132.727 256.466 132.591 256.835L129.71 256.511C129.892 255.75 130.238 255.085 130.75 254.517C131.255 253.955 131.903 253.517 132.693 253.205C133.483 252.898 134.386 252.744 135.403 252.744Z" fill="white"/>
<path d="M116.228 250.039C116.736 250.137 117.135 250.399 117.424 250.825C117.714 251.251 117.803 251.72 117.692 252.231C117.595 252.733 117.328 253.127 116.893 253.413C116.457 253.7 115.985 253.794 115.477 253.696C114.986 253.601 114.596 253.341 114.307 252.915C114.012 252.488 113.913 252.023 114.01 251.521C114.085 251.183 114.238 250.891 114.468 250.646C114.693 250.4 114.961 250.221 115.275 250.107C115.581 249.999 115.899 249.976 116.228 250.039Z" fill="white"/>
<path d="M73.0484 231.663L68.721 244.449L66.081 242.74L69.3752 233.913L69.275 233.848L62.0745 240.147L59.4631 238.456L62.6853 229.643L62.578 229.574L55.478 235.877L52.8308 234.163L63.3754 225.401L66.0727 227.147L63.1105 235.764L63.2608 235.861L70.3439 229.912L73.0484 231.663Z" fill="white"/>
<path d="M57.3418 218.707L47.9396 227.816L45.7237 225.669L55.1259 216.56L57.3418 218.707ZM45.4911 228.029C45.8421 228.369 46.0278 228.775 46.0482 229.245C46.0645 229.72 45.9074 230.117 45.5768 230.437C45.2422 230.761 44.8321 230.914 44.3465 230.894C43.8568 230.878 43.4364 230.7 43.0855 230.36C42.7305 230.016 42.5468 229.609 42.5346 229.138C42.5142 228.668 42.6713 228.271 43.0059 227.946C43.3365 227.626 43.7466 227.474 44.2363 227.49C44.7178 227.506 45.1361 227.686 45.4911 228.029Z" fill="white"/>
<path d="M27.9019 202.872L29.9052 201.575L34.1779 207.77L32.1746 209.067L27.9019 202.872ZM28.4869 209.242L26.7352 206.702L37.0521 200.024C37.4003 199.798 37.6319 199.574 37.7469 199.351C37.854 199.126 37.8812 198.905 37.8286 198.689C37.776 198.472 37.6772 198.259 37.532 198.049C37.4223 197.89 37.3104 197.752 37.1962 197.637C37.0788 197.517 36.9864 197.428 36.9189 197.37L38.6485 195.631C38.7897 195.736 38.9761 195.896 39.2075 196.112C39.4357 196.322 39.6788 196.605 39.9367 196.959C40.3945 197.582 40.6919 198.219 40.8289 198.868C40.9611 199.519 40.9015 200.143 40.6501 200.739C40.3954 201.33 39.923 201.846 39.233 202.285L28.4869 209.242Z" fill="white"/>
<path d="M23.3638 181.111L30.4825 178.255L31.6954 181.092L15.4965 187.592L14.3104 184.818L20.4245 182.364L20.3642 182.223C19.5581 182.216 18.8311 181.997 18.1832 181.565C17.5278 181.13 17.0036 180.453 16.6104 179.534C16.2531 178.698 16.1181 177.898 16.2056 177.135C16.2931 176.371 16.6044 175.683 17.1394 175.071C17.6722 174.453 18.429 173.947 19.4098 173.554L27.1454 170.45L28.3583 173.286L21.0656 176.213C20.2483 176.541 19.7022 177.005 19.4274 177.605C19.1451 178.202 19.1637 178.873 19.4831 179.621C19.6975 180.122 20.0004 180.527 20.3916 180.835C20.7753 181.14 21.2209 181.323 21.7282 181.382C22.2333 181.436 22.7785 181.346 23.3638 181.111Z" fill="white"/>
<path d="M24.8709 157.443C24.9749 157.95 24.8855 158.418 24.6027 158.849C24.3199 159.28 23.9213 159.542 23.4069 159.635C22.9059 159.737 22.4398 159.642 22.0084 159.349C21.5771 159.056 21.3094 158.656 21.2054 158.15C21.1048 157.66 21.196 157.2 21.4788 156.769C21.7604 156.333 22.1517 156.064 22.6527 155.962C22.9942 155.902 23.3221 155.931 23.6365 156.05C23.9497 156.163 24.2186 156.343 24.4431 156.589C24.6609 156.83 24.8035 157.115 24.8709 157.443Z" fill="white"/>
<path d="M25.6012 114.067L8.46199 110.764L9.09792 107.666L23.6344 110.468L25.1806 102.937L27.7832 103.439L25.6012 114.067Z" fill="white"/>
<path d="M30.852 82.88L23.8124 80.0551L25.0253 77.2183L37.1745 82.0937L35.9985 84.8443L33.8391 83.9778L33.7855 84.1031C34.3496 84.6478 34.7149 85.3177 34.8815 86.1129C35.0503 86.9029 34.9415 87.7498 34.5551 88.6536C34.2178 89.4425 33.743 90.0691 33.1306 90.5333C32.5151 90.9902 31.7947 91.252 30.9693 91.3186C30.1386 91.3831 29.2381 91.2207 28.2679 90.8313L20.5323 87.7271L21.7452 84.8902L29.0378 87.8167C29.8077 88.1257 30.5087 88.1622 31.1409 87.9262C31.7731 87.6902 32.2344 87.2327 32.5247 86.5535C32.7034 86.1356 32.7737 85.6894 32.7356 85.2151C32.6975 84.7407 32.529 84.2967 32.2302 83.883C31.9283 83.4619 31.4689 83.1276 30.852 82.88Z" fill="white"/>
<path d="M34.4676 63.6086L40.0243 64.0596L37.4919 59.2236L39.3452 56.5365L42.5995 63.3418L50.3732 63.5942L48.5296 66.2673L43.0006 65.9863L45.3989 70.8065L43.5408 73.5007L40.3107 66.6603L32.6095 66.3027L34.4676 63.6086Z" fill="white"/>
<path d="M61.1759 45.9165L55.7281 40.6386L57.944 38.4918L67.3461 47.6007L65.1976 49.6822L63.5265 48.0632L63.4285 48.1581C63.7428 48.8737 63.8244 49.6288 63.6734 50.4235C63.5265 51.2142 63.1 51.9515 62.3941 52.6355C61.7779 53.2324 61.0964 53.6278 60.3496 53.8215C59.6028 54.0073 58.8336 53.9737 58.0419 53.7207C57.2461 53.4637 56.4728 52.9715 55.722 52.2441L49.7354 46.4443L51.9513 44.2975L57.595 49.7652C58.1908 50.3424 58.8274 50.6429 59.5049 50.6666C60.1823 50.6903 60.7862 50.4452 61.3167 49.9313C61.6432 49.615 61.8799 49.2315 62.0268 48.7808C62.1737 48.3301 62.188 47.8577 62.0696 47.3635C61.9513 46.8614 61.6534 46.3791 61.1759 45.9165Z" fill="white"/>
<path d="M77.4121 41.5126L69.9797 30.7361L72.4909 29.1105L73.7296 30.9066L73.8441 30.8325C73.6154 30.0807 73.6282 29.379 73.8824 28.7273C74.1382 28.0679 74.5809 27.5343 75.2105 27.1268C75.3536 27.0342 75.5182 26.9377 75.7044 26.8375C75.8921 26.7296 76.0536 26.6487 76.189 26.5949L77.8003 28.9312C77.6648 28.9648 77.4681 29.0447 77.2103 29.171C76.954 29.2896 76.7161 29.4199 76.4967 29.5619C76.0245 29.8676 75.6694 30.2429 75.4313 30.688C75.1947 31.1252 75.0901 31.5887 75.1174 32.0785C75.1447 32.5682 75.3164 33.0423 75.6326 33.5006L80.002 39.836L77.4121 41.5126Z" fill="white"/>
<path d="M101.841 34.9882C101.451 35.1448 101.076 35.2584 100.717 35.329C100.365 35.4028 100.075 35.4396 99.8468 35.4395L99.5663 32.963C100.034 32.916 100.431 32.8243 100.755 32.6879C101.08 32.5514 101.324 32.3342 101.487 32.0363C101.657 31.7414 101.732 31.3318 101.712 30.8074L101.679 30.0586L92.0198 19.5389L95.0571 18.3201L101.744 26.2868L101.87 26.236L100.792 16.0189L103.837 14.7968L104.742 30.2434C104.788 30.9717 104.721 31.6383 104.541 32.2431C104.363 32.853 104.054 33.3872 103.613 33.8454C103.18 34.3068 102.59 34.6878 101.841 34.9882Z" fill="white"/>
<path d="M122.407 24.77C121.899 24.8679 121.427 24.7736 120.991 24.4873C120.556 24.201 120.288 23.8013 120.188 23.2881C120.08 22.7883 120.171 22.3253 120.46 21.8993C120.75 21.4732 121.148 21.2112 121.656 21.1134C122.147 21.0187 122.61 21.1146 123.046 21.4009C123.487 21.6862 123.762 22.0787 123.871 22.5785C123.935 22.9191 123.909 23.2452 123.793 23.5568C123.683 23.8674 123.505 24.133 123.261 24.3538C123.021 24.5678 122.736 24.7066 122.407 24.77Z" fill="white"/>
</svg>
